<svg xmlns="http://www.w3.org/2000/svg" viewBox="0 0 512 512"><defs><linearGradient id="bg" x1="0" y1="0" x2="1" y2="1"><stop stop-color="#062b55"/><stop offset="1" stop-color="#0b4f7d"/></linearGradient><linearGradient id="pin" x1="0" y1="0" x2="1" y2="1"><stop stop-color="#ff5668"/><stop offset="1" stop-color="#ef183d"/></linearGradient></defs><rect width="512" height="512" rx="115" fill="url(#bg)"/><path d="M-40 410L200 330L560 390" fill="none" stroke="#1d8ed1" stroke-width="70"/><path d="M-30 465L180 390L545 450" fill="none" stroke="#43c59e" stroke-width="34"/><circle cx="256" cy="256" r="190" fill="none" stroke="#b9ecff" stroke-width="7" opacity=".9" stroke-dasharray="20 12"/><g fill="#fff"><circle cx="256" cy="77" r="27"/><path d="M218 128c0-20 76-20 76 0v25h-76z"/><circle cx="96" cy="180" r="27"/><path d="M58 231c0-20 76-20 76 0v25H58z"/><circle cx="416" cy="180" r="27"/><path d="M378 231c0-20 76-20 76 0v25h-76z"/><circle cx="256" cy="420" r="27"/><path d="M218 370c0-20 76-20 76 0v25h-76z"/></g><path d="M256 150c-76 0-124 60-124 119 0 85 124 180 124 180s124-95 124-180c0-59-48-119-124-119z" fill="url(#pin)"/><circle cx="256" cy="267" r="46" fill="#062b55"/></svg>